<svg xmlns="http://www.w3.org/2000/svg" width="1360" height="1100" viewBox="0 0 1360 1100"><defs><style>.node{fill:#e8f0fe;stroke:#5f6368;stroke-width:1.2;} .edge{stroke:#5f6368;stroke-width:1.3;fill:none;} .label{font-family:Arial;font-size:12px;} .group{font-family:Arial;font-size:13px;font-weight:bold;fill:#4a4a4a;} .disjoint{stroke:#d93025;stroke-width:1.2;stroke-dasharray:5,4;} .disjoint-label{font-family:Arial;font-size:11px;fill:#d93025;}</style><marker id="arrow" markerWidth="10" markerHeight="7" refX="10" refY="3.5" orient="auto"><polygon points="0 0, 10 3.5, 0 7" fill="#5f6368" /></marker></defs><text class="group" x="60" y="80">Entities</text><text class="group" x="190" y="80">Metrics</text><text class="group" x="450" y="80">Observations</text><text class="group" x="710" y="80">Benchmarks & Rankings</text><text class="group" x="1100" y="80">Metadata</text><path class="edge" d="M 410.0 180 L 280.0 280" marker-end="url(#arrow)" /><path class="edge" d="M 410.0 180 L 540.0 280" marker-end="url(#arrow)" /><path class="edge" d="M 540.0 350 L 540.0 420" marker-end="url(#arrow)" /><path class="edge" d="M 670.0 180 L 540.0 280" marker-end="url(#arrow)" /><path class="edge" d="M 670.0 180 L 800.0 280" marker-end="url(#arrow)" /><path class="edge" d="M 930.0 180 L 800.0 280" marker-end="url(#arrow)" /><path class="edge" d="M 930.0 180 L 1060.0 280" marker-end="url(#arrow)" /><path class="edge" d="M 930.0 600 L 930.0 670" marker-end="url(#arrow)" /><path class="edge" d="M 930.0 740 L 930.0 810" marker-end="url(#arrow)" /><path class="edge" d="M 930.0 740 L 930.0 950" marker-end="url(#arrow)" /><path class="edge" d="M 1190.0 460 L 1190.0 530" marker-end="url(#arrow)" /><line class="disjoint" x1="540.0" y1="315.0" x2="800.0" y2="315.0" /><text class="disjoint-label" x="670.0" y="303.0" text-anchor="middle">⊥</text><rect class="node" x="60" y="110" width="180" height="70" rx="12" ry="12" fill="#e8f0fe" /><text class="label" x="150.0" y="150" text-anchor="middle">Company</text><rect class="node" x="60" y="250" width="180" height="70" rx="12" ry="12" fill="#e8f0fe" /><text class="label" x="150.0" y="290" text-anchor="middle">Sector</text><rect class="node" x="60" y="390" width="180" height="70" rx="12" ry="12" fill="#e8f0fe" /><text class="label" x="150.0" y="430" text-anchor="middle">Industry</text><rect class="node" x="320" y="110" width="180" height="70" rx="12" ry="12" fill="#e8f0fe" /><text class="label" x="410.0" y="150" text-anchor="middle">Metric</text><rect class="node" x="190" y="280" width="180" height="70" rx="12" ry="12" fill="#e8f0fe" /><text class="label" x="280.0" y="320" text-anchor="middle">BaseMetric</text><rect class="node" x="450" y="280" width="180" height="70" rx="12" ry="12" fill="#e8f0fe" /><text class="label" x="540.0" y="320" text-anchor="middle">DerivedMetric</text><rect class="node" x="450" y="420" width="180" height="70" rx="12" ry="12" fill="#e8f0fe" /><text class="label" x="540.0" y="460" text-anchor="middle">DerivedRatio</text><rect class="node" x="580" y="110" width="180" height="70" rx="12" ry="12" fill="#e8f0fe" /><text class="label" x="670.0" y="150" text-anchor="middle">MetricObservation</text><rect class="node" x="450" y="280" width="180" height="70" rx="12" ry="12" fill="#fdecea" /><text class="label" x="540.0" y="320" text-anchor="middle">DurationObservation</text><rect class="node" x="710" y="280" width="180" height="70" rx="12" ry="12" fill="#fdecea" /><text class="label" x="800.0" y="320" text-anchor="middle">InstantObservation</text><rect class="node" x="840" y="110" width="180" height="70" rx="12" ry="12" fill="#e8f0fe" /><text class="label" x="930.0" y="150" text-anchor="middle">Benchmark</text><rect class="node" x="710" y="280" width="180" height="70" rx="12" ry="12" fill="#e8f0fe" /><text class="label" x="800.0" y="320" text-anchor="middle">IndustryBenchmark</text><rect class="node" x="970" y="280" width="180" height="70" rx="12" ry="12" fill="#e8f0fe" /><text class="label" x="1060.0" y="320" text-anchor="middle">AllBenchmark</text><rect class="node" x="840" y="530" width="180" height="70" rx="12" ry="12" fill="#e8f0fe" /><text class="label" x="930.0" y="570" text-anchor="middle">Ranking</text><rect class="node" x="840" y="670" width="180" height="70" rx="12" ry="12" fill="#e8f0fe" /><text class="label" x="930.0" y="710" text-anchor="middle">TopRanking</text><rect class="node" x="840" y="810" width="180" height="70" rx="12" ry="12" fill="#e8f0fe" /><text class="label" x="930.0" y="850" text-anchor="middle">IndustryTopRanking</text><rect class="node" x="840" y="950" width="180" height="70" rx="12" ry="12" fill="#e8f0fe" /><text class="label" x="930.0" y="990" text-anchor="middle">AllTopRanking</text><rect class="node" x="1100" y="110" width="180" height="70" rx="12" ry="12" fill="#e8f0fe" /><text class="label" x="1190.0" y="150" text-anchor="middle">Unit</text><rect class="node" x="1100" y="250" width="180" height="70" rx="12" ry="12" fill="#e8f0fe" /><text class="label" x="1190.0" y="290" text-anchor="middle">Currency</text><rect class="node" x="1100" y="390" width="180" height="70" rx="12" ry="12" fill="#e8f0fe" /><text class="label" x="1190.0" y="430" text-anchor="middle">Financial Reporting Concept</text><rect class="node" x="1100" y="530" width="180" height="70" rx="12" ry="12" fill="#e8f0fe" /><text class="label" x="1190.0" y="570" text-anchor="middle">XBRL Concept</text></svg>